<mxfile host="Electron" agent="Mozilla/5.0 (Windows NT 10.0; Win64; x64) AppleWebKit/537.36 (KHTML, like Gecko) draw.io/27.0.9 Chrome/134.0.6998.205 Electron/35.4.0 Safari/537.36" version="27.0.9">
  <diagram name="페이지-1" id="O0-rULYapt9vp_qrFiVh">
    <mxGraphModel dx="5659" dy="3017" grid="1" gridSize="10" guides="1" tooltips="1" connect="1" arrows="1" fold="1" page="1" pageScale="1" pageWidth="827" pageHeight="1169" math="0" shadow="0">
      <root>
        <mxCell id="0" />
        <mxCell id="1" parent="0" />
        <mxCell id="go3CJhWsUJ19LMjRWC7b-69" value="" style="rounded=0;whiteSpace=wrap;html=1;" vertex="1" parent="1">
          <mxGeometry x="-90" y="-340" width="530" height="1800" as="geometry" />
        </mxCell>
        <mxCell id="go3CJhWsUJ19LMjRWC7b-19" style="edgeStyle=orthogonalEdgeStyle;rounded=0;orthogonalLoop=1;jettySize=auto;html=1;exitX=0.5;exitY=1;exitDx=0;exitDy=0;entryX=0.5;entryY=0;entryDx=0;entryDy=0;fontSize=23;" edge="1" parent="1" source="go3CJhWsUJ19LMjRWC7b-1" target="go3CJhWsUJ19LMjRWC7b-18">
          <mxGeometry relative="1" as="geometry" />
        </mxCell>
        <mxCell id="go3CJhWsUJ19LMjRWC7b-1" value="REG_ACC_SUM" style="rounded=0;whiteSpace=wrap;html=1;fontSize=23;" vertex="1" parent="1">
          <mxGeometry x="120" y="610" width="240" height="150" as="geometry" />
        </mxCell>
        <mxCell id="go3CJhWsUJ19LMjRWC7b-21" style="edgeStyle=orthogonalEdgeStyle;rounded=0;orthogonalLoop=1;jettySize=auto;html=1;exitX=0.75;exitY=1;exitDx=0;exitDy=0;entryX=0.75;entryY=0;entryDx=0;entryDy=0;fontSize=23;" edge="1" parent="1" source="go3CJhWsUJ19LMjRWC7b-5" target="go3CJhWsUJ19LMjRWC7b-18">
          <mxGeometry relative="1" as="geometry">
            <Array as="points">
              <mxPoint x="300" y="370" />
              <mxPoint x="390" y="370" />
              <mxPoint x="390" y="790" />
              <mxPoint x="270" y="790" />
            </Array>
          </mxGeometry>
        </mxCell>
        <mxCell id="go3CJhWsUJ19LMjRWC7b-22" style="edgeStyle=orthogonalEdgeStyle;rounded=0;orthogonalLoop=1;jettySize=auto;html=1;exitX=0.25;exitY=1;exitDx=0;exitDy=0;entryX=0.5;entryY=0;entryDx=0;entryDy=0;fontSize=23;" edge="1" parent="1" source="go3CJhWsUJ19LMjRWC7b-5" target="go3CJhWsUJ19LMjRWC7b-11">
          <mxGeometry relative="1" as="geometry" />
        </mxCell>
        <mxCell id="go3CJhWsUJ19LMjRWC7b-24" style="edgeStyle=orthogonalEdgeStyle;rounded=0;orthogonalLoop=1;jettySize=auto;html=1;exitX=0;exitY=0.5;exitDx=0;exitDy=0;entryX=1;entryY=0.5;entryDx=0;entryDy=0;fontSize=23;" edge="1" parent="1" source="go3CJhWsUJ19LMjRWC7b-5" target="go3CJhWsUJ19LMjRWC7b-23">
          <mxGeometry relative="1" as="geometry" />
        </mxCell>
        <mxCell id="go3CJhWsUJ19LMjRWC7b-5" value="REG_A" style="rounded=0;whiteSpace=wrap;html=1;fontSize=23;" vertex="1" parent="1">
          <mxGeometry x="120" y="70" width="240" height="150" as="geometry" />
        </mxCell>
        <mxCell id="go3CJhWsUJ19LMjRWC7b-7" value="Mux" style="shadow=0;dashed=0;align=center;html=1;strokeWidth=1;shape=mxgraph.electrical.abstract.mux2;whiteSpace=wrap;rotation=90;flipH=0;flipV=0;fontSize=23;" vertex="1" parent="1">
          <mxGeometry x="130" y="-70" width="80" height="120" as="geometry" />
        </mxCell>
        <mxCell id="go3CJhWsUJ19LMjRWC7b-8" style="edgeStyle=orthogonalEdgeStyle;rounded=0;orthogonalLoop=1;jettySize=auto;html=1;exitX=1;exitY=0.5;exitDx=0;exitDy=-5;exitPerimeter=0;entryX=0.225;entryY=-0.013;entryDx=0;entryDy=0;entryPerimeter=0;fontSize=23;" edge="1" parent="1" source="go3CJhWsUJ19LMjRWC7b-7" target="go3CJhWsUJ19LMjRWC7b-5">
          <mxGeometry relative="1" as="geometry" />
        </mxCell>
        <mxCell id="go3CJhWsUJ19LMjRWC7b-10" style="edgeStyle=orthogonalEdgeStyle;rounded=0;orthogonalLoop=1;jettySize=auto;html=1;exitX=0.5;exitY=1;exitDx=0;exitDy=0;entryX=0;entryY=0.21666666666666667;entryDx=0;entryDy=3;entryPerimeter=0;fontSize=23;" edge="1" parent="1" target="go3CJhWsUJ19LMjRWC7b-7">
          <mxGeometry relative="1" as="geometry">
            <mxPoint x="200" y="-180" as="sourcePoint" />
          </mxGeometry>
        </mxCell>
        <mxCell id="go3CJhWsUJ19LMjRWC7b-11" value="a &amp;lt;= 10" style="rounded=0;whiteSpace=wrap;html=1;fontSize=23;" vertex="1" parent="1">
          <mxGeometry x="120" y="300" width="120" height="60" as="geometry" />
        </mxCell>
        <mxCell id="go3CJhWsUJ19LMjRWC7b-37" style="edgeStyle=orthogonalEdgeStyle;rounded=0;orthogonalLoop=1;jettySize=auto;html=1;exitX=0.75;exitY=1;exitDx=0;exitDy=0;entryX=0;entryY=0.5;entryDx=0;entryDy=0;fontSize=23;" edge="1" parent="1" source="go3CJhWsUJ19LMjRWC7b-18" target="go3CJhWsUJ19LMjRWC7b-36">
          <mxGeometry relative="1" as="geometry" />
        </mxCell>
        <mxCell id="go3CJhWsUJ19LMjRWC7b-18" value="ADD" style="rounded=0;whiteSpace=wrap;html=1;fontSize=23;" vertex="1" parent="1">
          <mxGeometry x="180" y="860" width="120" height="60" as="geometry" />
        </mxCell>
        <mxCell id="go3CJhWsUJ19LMjRWC7b-23" value="ADD" style="rounded=0;whiteSpace=wrap;html=1;fontSize=23;" vertex="1" parent="1">
          <mxGeometry x="-80" y="115" width="120" height="60" as="geometry" />
        </mxCell>
        <mxCell id="go3CJhWsUJ19LMjRWC7b-28" style="edgeStyle=orthogonalEdgeStyle;rounded=0;orthogonalLoop=1;jettySize=auto;html=1;entryX=1;entryY=0.75;entryDx=0;entryDy=0;fontSize=23;" edge="1" parent="1" source="go3CJhWsUJ19LMjRWC7b-27" target="go3CJhWsUJ19LMjRWC7b-23">
          <mxGeometry relative="1" as="geometry" />
        </mxCell>
        <mxCell id="go3CJhWsUJ19LMjRWC7b-27" value="1" style="rounded=0;whiteSpace=wrap;html=1;fontSize=23;" vertex="1" parent="1">
          <mxGeometry x="40" y="210" width="60" height="40" as="geometry" />
        </mxCell>
        <mxCell id="go3CJhWsUJ19LMjRWC7b-29" style="edgeStyle=orthogonalEdgeStyle;rounded=0;orthogonalLoop=1;jettySize=auto;html=1;exitX=0.5;exitY=0;exitDx=0;exitDy=0;entryX=0;entryY=0.65;entryDx=0;entryDy=3;entryPerimeter=0;fontSize=23;" edge="1" parent="1" source="go3CJhWsUJ19LMjRWC7b-23" target="go3CJhWsUJ19LMjRWC7b-7">
          <mxGeometry relative="1" as="geometry">
            <Array as="points">
              <mxPoint x="-20" y="-180" />
              <mxPoint x="149" y="-180" />
            </Array>
          </mxGeometry>
        </mxCell>
        <mxCell id="go3CJhWsUJ19LMjRWC7b-31" style="edgeStyle=orthogonalEdgeStyle;rounded=0;orthogonalLoop=1;jettySize=auto;html=1;exitX=1;exitY=0.5;exitDx=0;exitDy=-5;exitPerimeter=0;entryX=0.25;entryY=0;entryDx=0;entryDy=0;fontSize=23;" edge="1" parent="1" source="go3CJhWsUJ19LMjRWC7b-30" target="go3CJhWsUJ19LMjRWC7b-1">
          <mxGeometry relative="1" as="geometry" />
        </mxCell>
        <mxCell id="go3CJhWsUJ19LMjRWC7b-30" value="Mux" style="shadow=0;dashed=0;align=center;html=1;strokeWidth=1;shape=mxgraph.electrical.abstract.mux2;whiteSpace=wrap;rotation=90;flipH=0;flipV=0;fontSize=23;" vertex="1" parent="1">
          <mxGeometry x="140" y="460" width="80" height="120" as="geometry" />
        </mxCell>
        <mxCell id="go3CJhWsUJ19LMjRWC7b-32" value="0" style="rounded=0;whiteSpace=wrap;html=1;fontSize=23;" vertex="1" parent="1">
          <mxGeometry x="170" y="-220" width="70" height="40" as="geometry" />
        </mxCell>
        <mxCell id="go3CJhWsUJ19LMjRWC7b-33" value="0" style="rounded=0;whiteSpace=wrap;html=1;fontSize=23;" vertex="1" parent="1">
          <mxGeometry x="180" y="400" width="70" height="40" as="geometry" />
        </mxCell>
        <mxCell id="go3CJhWsUJ19LMjRWC7b-34" style="edgeStyle=orthogonalEdgeStyle;rounded=0;orthogonalLoop=1;jettySize=auto;html=1;exitX=0.5;exitY=1;exitDx=0;exitDy=0;entryX=0;entryY=0.21666666666666667;entryDx=0;entryDy=3;entryPerimeter=0;fontSize=23;" edge="1" parent="1" source="go3CJhWsUJ19LMjRWC7b-33" target="go3CJhWsUJ19LMjRWC7b-30">
          <mxGeometry relative="1" as="geometry" />
        </mxCell>
        <mxCell id="go3CJhWsUJ19LMjRWC7b-35" style="edgeStyle=orthogonalEdgeStyle;rounded=0;orthogonalLoop=1;jettySize=auto;html=1;exitX=0.5;exitY=1;exitDx=0;exitDy=0;entryX=0;entryY=0.65;entryDx=0;entryDy=3;entryPerimeter=0;fontSize=23;" edge="1" parent="1" source="go3CJhWsUJ19LMjRWC7b-18" target="go3CJhWsUJ19LMjRWC7b-30">
          <mxGeometry relative="1" as="geometry">
            <Array as="points">
              <mxPoint x="240" y="990" />
              <mxPoint x="30" y="990" />
              <mxPoint x="30" y="460" />
              <mxPoint x="159" y="460" />
            </Array>
          </mxGeometry>
        </mxCell>
        <mxCell id="go3CJhWsUJ19LMjRWC7b-38" style="edgeStyle=orthogonalEdgeStyle;rounded=0;orthogonalLoop=1;jettySize=auto;html=1;exitX=1;exitY=0.5;exitDx=0;exitDy=0;fontSize=23;" edge="1" parent="1" source="go3CJhWsUJ19LMjRWC7b-36">
          <mxGeometry relative="1" as="geometry">
            <mxPoint x="270" y="1360" as="targetPoint" />
          </mxGeometry>
        </mxCell>
        <mxCell id="go3CJhWsUJ19LMjRWC7b-36" value="" style="verticalLabelPosition=bottom;shadow=0;dashed=0;align=center;html=1;verticalAlign=top;shape=mxgraph.electrical.logic_gates.buffer2;rotation=90;fontSize=23;" vertex="1" parent="1">
          <mxGeometry x="220" y="1110" width="100" height="60" as="geometry" />
        </mxCell>
        <mxCell id="go3CJhWsUJ19LMjRWC7b-39" value="Output" style="text;html=1;align=center;verticalAlign=middle;whiteSpace=wrap;rounded=0;fontSize=23;" vertex="1" parent="1">
          <mxGeometry x="240" y="1370" width="60" height="30" as="geometry" />
        </mxCell>
        <mxCell id="go3CJhWsUJ19LMjRWC7b-40" value="" style="rounded=0;whiteSpace=wrap;html=1;fontSize=23;" vertex="1" parent="1">
          <mxGeometry x="-490" y="-230" width="280" height="1620" as="geometry" />
        </mxCell>
        <mxCell id="go3CJhWsUJ19LMjRWC7b-41" value="" style="endArrow=classic;html=1;rounded=0;entryX=0.375;entryY=1;entryDx=10;entryDy=0;entryPerimeter=0;strokeColor=#00CC00;strokeWidth=3;fontSize=23;" edge="1" parent="1" target="go3CJhWsUJ19LMjRWC7b-7">
          <mxGeometry width="50" height="50" relative="1" as="geometry">
            <mxPoint x="-210" y="-10" as="sourcePoint" />
            <mxPoint x="-160" y="-60" as="targetPoint" />
          </mxGeometry>
        </mxCell>
        <mxCell id="go3CJhWsUJ19LMjRWC7b-42" value="" style="endArrow=classic;html=1;rounded=0;entryX=0.375;entryY=1;entryDx=10;entryDy=0;entryPerimeter=0;strokeColor=#00CC00;strokeWidth=3;fontSize=23;" edge="1" parent="1" target="go3CJhWsUJ19LMjRWC7b-30">
          <mxGeometry width="50" height="50" relative="1" as="geometry">
            <mxPoint x="-210" y="520" as="sourcePoint" />
            <mxPoint x="120" y="510" as="targetPoint" />
          </mxGeometry>
        </mxCell>
        <mxCell id="go3CJhWsUJ19LMjRWC7b-43" value="" style="endArrow=classic;html=1;rounded=0;exitX=0.996;exitY=0.843;exitDx=0;exitDy=0;exitPerimeter=0;entryX=0.483;entryY=0.781;entryDx=0;entryDy=0;entryPerimeter=0;strokeColor=#00CC00;strokeWidth=3;fontSize=23;" edge="1" parent="1" source="go3CJhWsUJ19LMjRWC7b-40" target="go3CJhWsUJ19LMjRWC7b-36">
          <mxGeometry width="50" height="50" relative="1" as="geometry">
            <mxPoint x="200" y="1180" as="sourcePoint" />
            <mxPoint x="250" y="1130" as="targetPoint" />
          </mxGeometry>
        </mxCell>
        <mxCell id="go3CJhWsUJ19LMjRWC7b-45" value="" style="endArrow=classic;html=1;rounded=0;entryX=0;entryY=0.8;entryDx=0;entryDy=0;entryPerimeter=0;strokeColor=#00CC00;strokeWidth=3;fontSize=23;" edge="1" parent="1" target="go3CJhWsUJ19LMjRWC7b-1">
          <mxGeometry width="50" height="50" relative="1" as="geometry">
            <mxPoint x="-210" y="730" as="sourcePoint" />
            <mxPoint x="-160" y="680" as="targetPoint" />
          </mxGeometry>
        </mxCell>
        <mxCell id="go3CJhWsUJ19LMjRWC7b-46" value="" style="endArrow=classic;html=1;rounded=0;entryX=0;entryY=0.25;entryDx=0;entryDy=0;strokeColor=#00CC00;strokeWidth=3;fontSize=23;" edge="1" parent="1">
          <mxGeometry width="50" height="50" relative="1" as="geometry">
            <mxPoint x="-210" y="102.5" as="sourcePoint" />
            <mxPoint x="120" y="100" as="targetPoint" />
          </mxGeometry>
        </mxCell>
        <mxCell id="go3CJhWsUJ19LMjRWC7b-47" value="A_Mux_Sel" style="text;html=1;align=center;verticalAlign=middle;whiteSpace=wrap;rounded=0;fontSize=23;" vertex="1" parent="1">
          <mxGeometry x="-290" y="-25" width="70" height="30" as="geometry" />
        </mxCell>
        <mxCell id="go3CJhWsUJ19LMjRWC7b-48" value="ACC_Mux_Sel" style="text;html=1;align=center;verticalAlign=middle;whiteSpace=wrap;rounded=0;fontSize=23;" vertex="1" parent="1">
          <mxGeometry x="-300" y="505" width="70" height="30" as="geometry" />
        </mxCell>
        <mxCell id="go3CJhWsUJ19LMjRWC7b-49" value="A_EN" style="text;html=1;align=center;verticalAlign=middle;whiteSpace=wrap;rounded=0;fontSize=23;" vertex="1" parent="1">
          <mxGeometry x="-290" y="85" width="70" height="30" as="geometry" />
        </mxCell>
        <mxCell id="go3CJhWsUJ19LMjRWC7b-50" value="ACC_EN" style="text;html=1;align=center;verticalAlign=middle;whiteSpace=wrap;rounded=0;fontSize=23;" vertex="1" parent="1">
          <mxGeometry x="-290" y="720" width="70" height="30" as="geometry" />
        </mxCell>
        <mxCell id="go3CJhWsUJ19LMjRWC7b-51" value="Out_Buf_En" style="text;html=1;align=center;verticalAlign=middle;whiteSpace=wrap;rounded=0;fontSize=23;" vertex="1" parent="1">
          <mxGeometry x="-300" y="1120" width="70" height="30" as="geometry" />
        </mxCell>
        <mxCell id="go3CJhWsUJ19LMjRWC7b-52" value="" style="endArrow=classic;html=1;rounded=0;exitX=0;exitY=0.5;exitDx=0;exitDy=0;entryX=1.008;entryY=0.348;entryDx=0;entryDy=0;entryPerimeter=0;strokeColor=#00CC00;strokeWidth=3;" edge="1" parent="1" source="go3CJhWsUJ19LMjRWC7b-11" target="go3CJhWsUJ19LMjRWC7b-40">
          <mxGeometry width="50" height="50" relative="1" as="geometry">
            <mxPoint x="-90" y="320" as="sourcePoint" />
            <mxPoint x="-40" y="270" as="targetPoint" />
          </mxGeometry>
        </mxCell>
        <mxCell id="go3CJhWsUJ19LMjRWC7b-53" value="ALe10" style="text;html=1;align=center;verticalAlign=middle;whiteSpace=wrap;rounded=0;fontSize=23;" vertex="1" parent="1">
          <mxGeometry x="-330" y="315" width="70" height="30" as="geometry" />
        </mxCell>
        <mxCell id="go3CJhWsUJ19LMjRWC7b-57" style="edgeStyle=orthogonalEdgeStyle;rounded=0;orthogonalLoop=1;jettySize=auto;html=1;exitX=0.5;exitY=1;exitDx=0;exitDy=0;entryX=0.5;entryY=0;entryDx=0;entryDy=0;" edge="1" parent="1" source="go3CJhWsUJ19LMjRWC7b-54" target="go3CJhWsUJ19LMjRWC7b-55">
          <mxGeometry relative="1" as="geometry" />
        </mxCell>
        <mxCell id="go3CJhWsUJ19LMjRWC7b-54" value="S0&lt;div&gt;&lt;br&gt;&lt;/div&gt;&lt;div&gt;A = 0&lt;/div&gt;&lt;div&gt;ACC = 0&lt;/div&gt;&lt;div&gt;output = 0&lt;/div&gt;&lt;div&gt;-----------------------------------------------&lt;/div&gt;&lt;div&gt;A_Mux_sel = 0&lt;/div&gt;&lt;div&gt;A_En = 1&lt;/div&gt;&lt;div&gt;Acc_Mux_sel = 0&lt;/div&gt;&lt;div&gt;Acc_En = 1&lt;/div&gt;&lt;div&gt;Out_Buf_En = 0;&lt;/div&gt;" style="rounded=0;whiteSpace=wrap;html=1;" vertex="1" parent="1">
          <mxGeometry x="-1720" y="-35" width="260" height="180" as="geometry" />
        </mxCell>
        <mxCell id="go3CJhWsUJ19LMjRWC7b-58" style="edgeStyle=orthogonalEdgeStyle;rounded=0;orthogonalLoop=1;jettySize=auto;html=1;exitX=0.5;exitY=1;exitDx=0;exitDy=0;entryX=0.5;entryY=0;entryDx=0;entryDy=0;" edge="1" parent="1" source="go3CJhWsUJ19LMjRWC7b-55" target="go3CJhWsUJ19LMjRWC7b-56">
          <mxGeometry relative="1" as="geometry" />
        </mxCell>
        <mxCell id="go3CJhWsUJ19LMjRWC7b-55" value="S1&lt;div&gt;&lt;br&gt;&lt;/div&gt;&lt;div&gt;A &amp;lt;= 10&lt;/div&gt;&lt;div&gt;-----------------------------------------------&lt;/div&gt;&lt;div&gt;A_Mux_sel = x&lt;/div&gt;&lt;div&gt;A_En = 0&lt;/div&gt;&lt;div&gt;Acc_Mux_sel = x&lt;/div&gt;&lt;div&gt;Acc_En = 0&lt;/div&gt;&lt;div&gt;Out_Buf_En = 0;&lt;/div&gt;" style="rounded=0;whiteSpace=wrap;html=1;" vertex="1" parent="1">
          <mxGeometry x="-1720" y="260" width="260" height="180" as="geometry" />
        </mxCell>
        <mxCell id="go3CJhWsUJ19LMjRWC7b-60" style="edgeStyle=orthogonalEdgeStyle;rounded=0;orthogonalLoop=1;jettySize=auto;html=1;exitX=0;exitY=0.5;exitDx=0;exitDy=0;entryX=0.5;entryY=0;entryDx=0;entryDy=0;" edge="1" parent="1" source="go3CJhWsUJ19LMjRWC7b-56" target="go3CJhWsUJ19LMjRWC7b-59">
          <mxGeometry relative="1" as="geometry" />
        </mxCell>
        <mxCell id="go3CJhWsUJ19LMjRWC7b-61" value="NO" style="edgeLabel;html=1;align=center;verticalAlign=middle;resizable=0;points=[];" vertex="1" connectable="0" parent="go3CJhWsUJ19LMjRWC7b-60">
          <mxGeometry x="-0.1919" y="2" relative="1" as="geometry">
            <mxPoint as="offset" />
          </mxGeometry>
        </mxCell>
        <mxCell id="go3CJhWsUJ19LMjRWC7b-63" style="edgeStyle=orthogonalEdgeStyle;rounded=0;orthogonalLoop=1;jettySize=auto;html=1;exitX=0.5;exitY=1;exitDx=0;exitDy=0;entryX=0.5;entryY=0;entryDx=0;entryDy=0;" edge="1" parent="1" source="go3CJhWsUJ19LMjRWC7b-56" target="go3CJhWsUJ19LMjRWC7b-62">
          <mxGeometry relative="1" as="geometry" />
        </mxCell>
        <mxCell id="go3CJhWsUJ19LMjRWC7b-56" value="A&amp;lt;=10" style="rhombus;whiteSpace=wrap;html=1;" vertex="1" parent="1">
          <mxGeometry x="-1675" y="505" width="170" height="130" as="geometry" />
        </mxCell>
        <mxCell id="go3CJhWsUJ19LMjRWC7b-59" value="S5&lt;div&gt;&lt;br&gt;&lt;div&gt;Halt&lt;/div&gt;&lt;div&gt;-----------------------------------------------&lt;/div&gt;&lt;div&gt;A_Mux_sel = x&lt;/div&gt;&lt;div&gt;A_En = 0&lt;/div&gt;&lt;div&gt;Acc_Mux_sel = x&lt;/div&gt;&lt;div&gt;Acc_En = 0&lt;/div&gt;&lt;div&gt;Out_Buf_En = 0&lt;/div&gt;&lt;/div&gt;" style="rounded=0;whiteSpace=wrap;html=1;" vertex="1" parent="1">
          <mxGeometry x="-2080" y="680" width="260" height="180" as="geometry" />
        </mxCell>
        <mxCell id="go3CJhWsUJ19LMjRWC7b-66" style="edgeStyle=orthogonalEdgeStyle;rounded=0;orthogonalLoop=1;jettySize=auto;html=1;exitX=0.5;exitY=1;exitDx=0;exitDy=0;entryX=0.5;entryY=0;entryDx=0;entryDy=0;" edge="1" parent="1" source="go3CJhWsUJ19LMjRWC7b-62" target="go3CJhWsUJ19LMjRWC7b-64">
          <mxGeometry relative="1" as="geometry" />
        </mxCell>
        <mxCell id="go3CJhWsUJ19LMjRWC7b-62" value="S2&lt;div&gt;&lt;br&gt;&lt;/div&gt;&lt;div&gt;acc_sum += a&lt;/div&gt;&lt;div&gt;-----------------------------------------------&lt;/div&gt;&lt;div&gt;A_Mux_sel = 0&lt;/div&gt;&lt;div&gt;A_En = 0&lt;/div&gt;&lt;div&gt;Acc_Mux_sel = 1&lt;/div&gt;&lt;div&gt;Acc_En = 1&lt;/div&gt;&lt;div&gt;Out_Buf_En = 0;&lt;/div&gt;" style="rounded=0;whiteSpace=wrap;html=1;" vertex="1" parent="1">
          <mxGeometry x="-1720" y="680" width="260" height="180" as="geometry" />
        </mxCell>
        <mxCell id="go3CJhWsUJ19LMjRWC7b-67" style="edgeStyle=orthogonalEdgeStyle;rounded=0;orthogonalLoop=1;jettySize=auto;html=1;exitX=1;exitY=0.5;exitDx=0;exitDy=0;entryX=0;entryY=0.5;entryDx=0;entryDy=0;" edge="1" parent="1" source="go3CJhWsUJ19LMjRWC7b-64" target="go3CJhWsUJ19LMjRWC7b-65">
          <mxGeometry relative="1" as="geometry" />
        </mxCell>
        <mxCell id="go3CJhWsUJ19LMjRWC7b-64" value="S3&lt;div&gt;&lt;br&gt;&lt;div&gt;Output&lt;/div&gt;&lt;div&gt;-----------------------------------------------&lt;/div&gt;&lt;div&gt;A_Mux_sel = x&lt;/div&gt;&lt;div&gt;A_En = 0&lt;/div&gt;&lt;div&gt;Acc_Mux_sel = x&lt;/div&gt;&lt;div&gt;Acc_En = 0&lt;/div&gt;&lt;div&gt;Out_Buf_En = 1&lt;/div&gt;&lt;/div&gt;" style="rounded=0;whiteSpace=wrap;html=1;" vertex="1" parent="1">
          <mxGeometry x="-1720" y="930" width="260" height="180" as="geometry" />
        </mxCell>
        <mxCell id="go3CJhWsUJ19LMjRWC7b-68" style="edgeStyle=orthogonalEdgeStyle;rounded=0;orthogonalLoop=1;jettySize=auto;html=1;exitX=0.5;exitY=0;exitDx=0;exitDy=0;entryX=1;entryY=0.5;entryDx=0;entryDy=0;" edge="1" parent="1" source="go3CJhWsUJ19LMjRWC7b-65" target="go3CJhWsUJ19LMjRWC7b-55">
          <mxGeometry relative="1" as="geometry" />
        </mxCell>
        <mxCell id="go3CJhWsUJ19LMjRWC7b-65" value="S4&lt;div&gt;&lt;br&gt;&lt;div&gt;a += 1&lt;/div&gt;&lt;div&gt;-----------------------------------------------&lt;/div&gt;&lt;div&gt;A_Mux_sel = 1&lt;/div&gt;&lt;div&gt;A_En = 1&lt;/div&gt;&lt;div&gt;Acc_Mux_sel = x&lt;/div&gt;&lt;div&gt;Acc_En = 0&lt;/div&gt;&lt;div&gt;Out_Buf_En = 0&lt;/div&gt;&lt;/div&gt;" style="rounded=0;whiteSpace=wrap;html=1;" vertex="1" parent="1">
          <mxGeometry x="-1350" y="930" width="260" height="180" as="geometry" />
        </mxCell>
        <mxCell id="go3CJhWsUJ19LMjRWC7b-70" value="&lt;font style=&quot;font-size: 39px;&quot;&gt;Data Path&lt;/font&gt;" style="text;html=1;align=center;verticalAlign=middle;whiteSpace=wrap;rounded=0;" vertex="1" parent="1">
          <mxGeometry x="90" y="-390" width="200" height="30" as="geometry" />
        </mxCell>
        <mxCell id="go3CJhWsUJ19LMjRWC7b-71" value="&lt;font style=&quot;font-size: 39px;&quot;&gt;Control Unit&lt;/font&gt;" style="text;html=1;align=center;verticalAlign=middle;whiteSpace=wrap;rounded=0;" vertex="1" parent="1">
          <mxGeometry x="-470" y="-290" width="260" height="30" as="geometry" />
        </mxCell>
      </root>
    </mxGraphModel>
  </diagram>
</mxfile>
